# xmcd
#
# Track frame offsets:
#	225
#	7913
#	16229
#	26115
#	36248
#	45144
#	60114
#	69387
#	77011
#	85876
#	93821
#	103046
#	118013
#	126135
#	132542
#	138918
#	148041
#	158748
#	164789
#	169735
#
# Disc length: 2432 seconds
#
# Revision: 1
# Processed by: cddbd v1.4PL0 Copyright (c) Steve Scherf et al.
# Submitted via: audiograbber 1.82.02
#
DISCID=fd097d14
DTITLE=Loren MazzaCane Connors - Airs
DYEAR=1999
DGENRE=Blues
TTITLE0=Untitled 1 (Airs)
TTITLE1=Untitled 2  (Airs)
TTITLE2=Untitled 3 (Airs)
TTITLE3=Untitled 4 (Airs)
TTITLE4=Untitled 5 (Airs)
TTITLE5=Untitled 6 (Airs)
TTITLE6=Untitled 7 (Airs)
TTITLE7=Untitled 8 (Airs)
TTITLE8=Untitled 9 (Airs)
TTITLE9=Untitled 10 (Airs)
TTITLE10=Untitled 11 (Airs)
TTITLE11=Untitled 12 (Airs)
TTITLE12=Untitled 13 (Airs)
TTITLE13=Untitled 14 (Airs)
TTITLE14=Untitled 15 (Airs)
TTITLE15=Untitled 16 (Airs)
TTITLE16=Untitled 17 (Airs)
TTITLE17=Untitled 18 (Airs)
TTITLE18=Untitled 19 (Airs)
TTITLE19=the death of shelly
EXTD=
EXTT0=
EXTT1=
EXTT2=
EXTT3=
EXTT4=
EXTT5=
EXTT6=
EXTT7=
EXTT8=
EXTT9=
EXTT10=
EXTT11=
EXTT12=
EXTT13=
EXTT14=
EXTT15=
EXTT16=
EXTT17=
EXTT18=
EXTT19=
PLAYORDER=
